# xmcd CD database file generated by Grip 3.3.1
#
# Track frame offsets:
#       150
#       9638
#       25318
#       40505
#       54875
#       72112
#       91687
#       110149
#       120376
#       138203
#       163809
#       179369
#       181871
#
# Disc length: 2609 seconds
#
# Revision: 2
# Processed by: cddbd v1.5.2PL0 Copyright (c) Steve Scherf et al.
# Submitted via: Grip 3.3.1
#
DISCID=9d0a2f0d
DTITLE=Lipali - Bloo
DYEAR=2007
DGENRE=blues
TTITLE0=Logon
TTITLE1=Pod kopułą pamięci
TTITLE2=Trybun ludowy (feat. Leszek Możdżer)
TTITLE3=New One
TTITLE4=Sen o lepszym dniu
TTITLE5=96 (feat. Afront)
TTITLE6=Bloo
TTITLE7=Runner
TTITLE8=Uczniowie czarnoksiężnika
TTITLE9=Od dechy do dechy
TTITLE10=Jeżozwierz
TTITLE11=Logoff
TTITLE12=Nóż (akustycznie)
EXTD=
EXTT0=
EXTT1=
EXTT2=
EXTT3=
EXTT4=
EXTT5=
EXTT6=
EXTT7=
EXTT8=
EXTT9=
EXTT10=
EXTT11=
EXTT12=
PLAYORDER=
